<?xml version="1.0" encoding="UTF-8" standalone="no"?>
<!-- Created with Inkscape (http://www.inkscape.org/) -->

<svg
   xmlns:dc="http://purl.org/dc/elements/1.1/"
   xmlns:cc="http://creativecommons.org/ns#"
   xmlns:rdf="http://www.w3.org/1999/02/22-rdf-syntax-ns#"
   xmlns:svg="http://www.w3.org/2000/svg"
   xmlns="http://www.w3.org/2000/svg"
   xmlns:sodipodi="http://sodipodi.sourceforge.net/DTD/sodipodi-0.dtd"
   xmlns:inkscape="http://www.inkscape.org/namespaces/inkscape"
   width="40"
   height="47.9375"
   id="svg2"
   version="1.1"
   inkscape:version="0.48.2 r9819"
   sodipodi:docname="Y.svg">
  <defs
     id="defs4" />
  <sodipodi:namedview
     id="base"
     pagecolor="#ffffff"
     bordercolor="#666666"
     borderopacity="1.0"
     inkscape:pageopacity="0.0"
     inkscape:pageshadow="2"
     inkscape:zoom="5.2071429"
     inkscape:cx="43.360765"
     inkscape:cy="32.155774"
     inkscape:document-units="px"
     inkscape:current-layer="layer1"
     showgrid="false"
     fit-margin-top="0"
     fit-margin-left="0"
     fit-margin-right="0"
     fit-margin-bottom="0"
     inkscape:window-width="1280"
     inkscape:window-height="752"
     inkscape:window-x="0"
     inkscape:window-y="0"
     inkscape:window-maximized="1" />
  <metadata
     id="metadata7">
    <rdf:RDF>
      <cc:Work
         rdf:about="">
        <dc:format>image/svg+xml</dc:format>
        <dc:type
           rdf:resource="http://purl.org/dc/dcmitype/StillImage" />
        <dc:title></dc:title>
      </cc:Work>
    </rdf:RDF>
  </metadata>
  <g
     inkscape:label="Layer 1"
     inkscape:groupmode="layer"
     id="layer1"
     transform="translate(-90.031929,-304.58679)">
    <path
       inkscape:connector-curvature="0"
       id="path3044"
       style="font-size:64px;font-style:normal;font-weight:normal;line-height:125%;letter-spacing:0px;word-spacing:0px;fill:#000000;fill-opacity:1;stroke:none;font-family:Sans"
       d="m 104.06318,326.61804 -3.96875,-16.125 c -0.166679,-0.52079 -0.250012,-0.98954 -0.250001,-1.40625 -1.1e-5,-1.24996 0.354151,-2.31246 1.062501,-3.1875 0.70832,-0.87495 1.49999,-1.31245 2.375,-1.3125 1.58332,5e-5 3.23956,1.10421 4.96875,3.3125 1.72914,2.18754 3.31248,5.11462 4.75,8.78125 0.39581,-0.31247 2.12497,-2.1458 5.1875,-5.5 2.5208,-2.74996 4.16663,-4.41662 4.9375,-5 0.79163,-0.58329 1.62496,-0.87496 2.5,-0.875 1.08329,4e-5 2.08329,0.53129 3,1.59375 0.93746,1.04171 1.40621,2.12504 1.40625,3.25 -4e-5,1.02087 -0.55213,1.56254 -1.65625,1.625 -0.37504,4e-5 -0.61462,0.0417 -0.71875,0.125 l -0.15625,0.59375 c -0.0625,0.18754 -0.28129,0.52087 -0.65625,1 -1.1667,1.2917 -2.87504,3.71878 -5.125,7.28125 -2.52087,3.89586 -3.94795,6.03127 -4.28125,6.40625 -0.52086,0.64586 -0.78128,1.31252 -0.78125,2 -3e-5,1.43752 0.4583,3.39585 1.375,5.875 0.93747,2.47918 2.2083,4.84376 3.8125,7.09375 0.68746,1.04167 1.03121,1.72917 1.03125,2.0625 -4e-5,0.20834 -0.17712,0.59376 -0.53125,1.15625 0.1458,0.1875 0.21871,0.375 0.21875,0.5625 -4e-5,0.39584 -0.12503,0.6875 -0.375,0.875 -0.25003,0.1875 -0.83337,0.52084 -1.75,1 -3e-5,1.22917 -0.51045,1.84375 -1.53125,1.84375 -0.43753,0 -1.05211,-0.26042 -1.84375,-0.78125 -0.7917,-0.52083 -1.33336,-1.01041 -1.625,-1.46875 -0.31253,-0.375 -0.62503,-0.625 -0.9375,-0.75 -0.33336,-0.0833 -0.58336,-0.1875 -0.75,-0.3125 -0.16669,-0.14583 -0.56253,-0.55208 -1.1875,-1.21875 -0.0417,-0.0833 -0.29169,-0.26041 -0.75,-0.53125 -0.58336,-0.24999 -1.14586,-0.90624 -1.6875,-1.96875 -0.27086,-0.66666 -0.98961,-1.90624 -2.15625,-3.71875 -6.81251,7.35417 -10.40626,11.22917 -10.781251,11.625 -0.375008,0.41667 -0.822925,0.85417 -1.34375,1.3125 -0.52084,0.45833 -0.937506,0.6875 -1.25,0.6875 -0.354172,0 -0.645839,-0.10417 -0.875,-0.3125 -0.208338,-0.20834 -0.322922,-0.89583 -0.34375,-2.0625 l -0.40625,-0.4375 c -0.125004,-0.125 -0.250004,-0.44792 -0.375,-0.96875 l -0.625,-0.3125 c -0.333337,-0.625 -0.895836,-1.28125 -1.6875,-1.96875 l -0.0625,-0.96875 -0.1875,-0.84375 c -2e-6,-0.24999 0.124998,-0.65624 0.375,-1.21875 0.270831,-0.56249 1.572913,-2.24999 3.90625,-5.0625 2.333325,-2.83332 3.770824,-4.5104 4.3125,-5.03125 2.041651,-1.91665 3.124991,-3.17706 3.250001,-3.78125 0.43749,-1.64581 1.16665,-2.62498 2.1875,-2.9375" />
  </g>
</svg>
