<?xml version="1.0" encoding="UTF-8" standalone="no"?>
<!-- Created with Inkscape (http://www.inkscape.org/) -->

<svg
   xmlns:dc="http://purl.org/dc/elements/1.1/"
   xmlns:cc="http://creativecommons.org/ns#"
   xmlns:rdf="http://www.w3.org/1999/02/22-rdf-syntax-ns#"
   xmlns:svg="http://www.w3.org/2000/svg"
   xmlns="http://www.w3.org/2000/svg"
   xmlns:sodipodi="http://sodipodi.sourceforge.net/DTD/sodipodi-0.dtd"
   xmlns:inkscape="http://www.inkscape.org/namespaces/inkscape"
   width="48.75"
   height="49.53125"
   id="svg2"
   version="1.1"
   inkscape:version="0.48.2 r9819"
   sodipodi:docname="Y.svg">
  <defs
     id="defs4" />
  <sodipodi:namedview
     id="base"
     pagecolor="#ffffff"
     bordercolor="#666666"
     borderopacity="1.0"
     inkscape:pageopacity="0.0"
     inkscape:pageshadow="2"
     inkscape:zoom="5.2071429"
     inkscape:cx="45.490907"
     inkscape:cy="32.556162"
     inkscape:document-units="px"
     inkscape:current-layer="layer1"
     showgrid="false"
     fit-margin-top="0"
     fit-margin-left="0"
     fit-margin-right="0"
     fit-margin-bottom="0"
     inkscape:window-width="1280"
     inkscape:window-height="752"
     inkscape:window-x="0"
     inkscape:window-y="0"
     inkscape:window-maximized="1" />
  <metadata
     id="metadata7">
    <rdf:RDF>
      <cc:Work
         rdf:about="">
        <dc:format>image/svg+xml</dc:format>
        <dc:type
           rdf:resource="http://purl.org/dc/dcmitype/StillImage" />
      </cc:Work>
    </rdf:RDF>
  </metadata>
  <g
     inkscape:label="Layer 1"
     inkscape:groupmode="layer"
     id="layer1"
     transform="translate(-87.901787,-303.39343)">
    <path
       inkscape:connector-curvature="0"
       id="path3040"
       style="font-size:64px;font-style:normal;font-weight:normal;line-height:125%;letter-spacing:0px;word-spacing:0px;fill:#000000;fill-opacity:1;stroke:none;font-family:Sans"
       d="m 103.30804,337.89343 c 1.52081,-3.18748 3.33331,-6.68748 5.4375,-10.5 2.10414,-3.81247 4.47914,-7.61455 7.125,-11.40625 2.66663,-3.79162 4.60413,-6.30204 5.8125,-7.53125 1.22913,-1.24995 2.26038,-2.23953 3.09375,-2.96875 0.85412,-0.72912 2.35412,-1.26037 4.5,-1.59375 2.14578,-0.33328 3.77078,-0.49995 4.875,-0.5 0.72911,5e-5 1.32286,0.22922 1.78125,0.6875 0.47911,0.43755 0.7187,1.02088 0.71875,1.75 -5e-5,0.56255 -0.13547,1.05213 -0.40625,1.46875 -0.27089,0.39588 -0.83339,1.00005 -1.6875,1.8125 -4.10421,3.77088 -8.37504,9.14587 -12.8125,16.125 -4.43753,6.97919 -7.95836,13.7396 -10.5625,20.28125 -1.22919,3.00001 -2.02086,4.76042 -2.375,5.28125 -0.35419,0.52084 -0.89586,1.01042 -1.625,1.46875 -0.72919,0.4375 -2.22919,0.65625 -4.5,0.65625 -1.79169,0 -2.937517,-0.11458 -3.437503,-0.34375 -0.500013,-0.20833 -0.88543,-0.4375 -1.15625,-0.6875 -0.270846,-0.25 -1.041678,-1.33333 -2.3125,-3.25 -1.312509,-2.02082 -3.218757,-4.40624 -5.71875,-7.15625 -1.437503,-1.58332 -2.156252,-2.90623 -2.15625,-3.96875 -2e-6,-1.54165 0.812497,-2.8854 2.4375,-4.03125 1.645827,-1.14581 3.093742,-1.71873 4.34375,-1.71875 1.374989,2e-5 2.843738,0.56252 4.40625,1.6875 1.562483,1.10419 2.968733,2.58335 4.218753,4.4375" />
  </g>
</svg>
